The Last Stand 2013 BRRIP XVID-Snake


IMDB: http://www.imdb.com/title/tt1549920/


Source: The Last Stand 2013 RC 720p BluRay X264 DTS-Lum1x


Information:


General 
Format : AVI 
Format/Info : Audio Video Interleave 
File size : 866 MiB 
Duration : 1h 47mn 
Overall bit rate mode : Variable 
Overall bit rate : 1 132 Kbps 

Video 
ID : 0 
Format : MPEG-4 Visual 
Format profile : Advanced Simple@L5 
Format settings, BVOP : 1 
Format settings, QPel : No 
Format settings, GMC : No warppoints 
Format settings, Matrix : Default (H.263) 
Muxing mode : Packed bitstream 
Codec ID : XVID 
Codec ID/Hint : XviD 
Duration : 1h 47mn 
Bit rate : 1 000 Kbps 
Width : 720 pixels 
Height : 304 pixels 
Display aspect ratio : 2.35:1 
Frame rate : 24.000 fps 
Color space : YUV 
Chroma subsampling : 4:2:0 
Bit depth : 8 bits 
Scan type : Progressive 
Compression mode : Lossy 
Bits/(Pixel*Frame) : 0.190 
Stream size : 766 MiB (88%) 
Writing library : XviD 1.2.1 (UTC 2008-12-04) 

Audio 
ID : 1 
Format : MPEG Audio 
Format version : Version 1 
Format profile : Layer 3 
Mode : Joint stereo 
Mode extension : MS Stereo 
Codec ID : 55 
Codec ID/Hint : MP3 
Duration : 1h 47mn 
Bit rate mode : Variable 
Bit rate : 119 Kbps 
Nominal bit rate : 128 Kbps 
Channel(s) : 2 channels 
Sampling rate : 48.0 KHz 
Compression mode : Lossy 
Stream size : 91.1 MiB (11%) 
Alignment : Aligned on interleaves 
Interleave, duration : 24 ms (0.58 video frame) 
Interleave, preload duration : 70 ms 
Writing library : LAME3.99r 
Encoding settings : -m j -V 4 -q 2 -lowpass 17 --abr 128 


Poster:

 
http://i.imgur.com/O4cQh1Z.jpg


Screenshots:

 
http://i.imgur.com/fvEIoae.jpg


SEED AND ENJOY!